<svg width="143" height="48" viewBox="0 0 143 48" fill="none" xmlns="http://www.w3.org/2000/svg">
<path d="M9.84854 19.6871C9.08696 19.6871 8.32535 19.3964 7.74227 18.8211C6.58205 17.6645 6.58205 15.7844 7.74227 14.6278L21.5459 0.86745C22.7062 -0.289129 24.5923 -0.289129 25.7525 0.86745C26.9127 2.02403 26.9127 3.90421 25.7525 5.06079L11.9488 18.8211C11.3717 19.3964 10.6101 19.6871 9.84854 19.6871Z" fill="white"/>
<path d="M24.5538 15.7863C23.3935 14.6297 23.3935 12.7496 24.5538 11.593L28.4985 7.66062C29.6706 6.49218 31.5865 6.50404 32.7467 7.70214C33.8831 8.87651 33.7998 10.7686 32.6396 11.9251L28.7663 15.7863C27.6001 16.9429 25.714 16.9429 24.5538 15.7863Z" fill="white"/>
<path d="M9.75887 33.5007C8.99729 33.5007 8.23572 33.2101 7.65264 32.6348C6.49242 31.4782 6.49242 29.598 7.65264 28.4415L17.6781 18.4474C18.8383 17.2908 20.7244 17.2908 21.8847 18.4474C23.0449 19.604 23.0449 21.4842 21.8847 22.6408L11.8592 32.6348C11.282 33.2101 10.5205 33.5007 9.75887 33.5007Z" fill="white"/>
<path d="M16.6151 40.3051C15.8535 40.3051 15.0919 40.0145 14.5088 39.4392C13.3486 38.2826 13.3486 36.4024 14.5088 35.2458L18.7689 30.9991C19.9292 29.8425 21.8152 29.8425 22.9755 30.9991C24.1357 32.1557 24.1357 34.0359 22.9755 35.1924L18.7154 39.4392C18.1382 40.0145 17.3767 40.3051 16.6151 40.3051Z" fill="white"/>
<path d="M27.7566 29.2072C26.995 29.2072 26.2334 28.9166 25.6503 28.3413C24.4901 27.1847 24.4901 25.3045 25.6503 24.1479L35.3605 14.4683C36.5207 13.3117 38.4068 13.3117 39.567 14.4683C40.7272 15.6248 40.7272 17.505 39.567 18.6616L29.8569 28.3413C29.2738 28.9166 28.5182 29.2072 27.7566 29.2072Z" fill="white"/>
<path d="M2.96901 26.5254C4.60873 26.5254 5.93798 25.2003 5.93798 23.5657C5.93798 21.9311 4.60873 20.606 2.96901 20.606C1.32929 20.606 0 21.9311 0 23.5657C0 25.2003 1.32929 26.5254 2.96901 26.5254Z" fill="white"/>
<path d="M23.4293 47.3034C22.6677 47.3034 21.9061 47.0128 21.3231 46.4375C20.1628 45.2809 20.1628 43.4007 21.3231 42.2442L35.3706 28.2407C36.5309 27.0841 38.417 27.0841 39.5772 28.2407C40.7374 29.3972 40.7374 31.2774 39.5772 32.434L25.5237 46.4375C24.9525 47.0128 24.1909 47.3034 23.4293 47.3034Z" fill="white"/>
<path d="M44.3321 26.4657C45.9718 26.4657 47.301 25.1406 47.301 23.5061C47.301 21.8715 45.9718 20.5464 44.3321 20.5464C42.6923 20.5464 41.3631 21.8715 41.3631 23.5061C41.3631 25.1406 42.6923 26.4657 44.3321 26.4657Z" fill="white"/>
<path d="M61.6556 31.0217C60.2759 30.2504 59.2304 29.1883 58.5127 27.8164C57.7951 26.4508 57.4424 24.8829 57.4424 23.1127C57.4424 21.3045 57.8074 19.7303 58.5436 18.3837C59.2799 17.0434 60.3378 16.0066 61.7236 15.2858C63.1032 14.5651 64.7427 14.1984 66.6358 14.1984C68.5166 14.1984 70.1499 14.5651 71.5233 15.2921C72.8968 16.0255 73.9547 17.0624 74.6909 18.4027C75.4271 19.743 75.7921 21.3109 75.7921 23.1064C75.7921 24.9082 75.4147 26.495 74.6538 27.867C73.8928 29.2389 72.8225 30.301 71.4305 31.047C70.0447 31.793 68.4362 32.166 66.6111 32.166C64.6808 32.1724 63.029 31.793 61.6556 31.0217ZM68.7702 27.26C69.3642 26.8617 69.8158 26.2991 70.1189 25.5847C70.4221 24.8702 70.5767 24.0484 70.5767 23.1127C70.5767 22.2023 70.4159 21.3994 70.088 20.7103C69.7601 20.0148 69.3023 19.4774 68.7083 19.0981C68.1144 18.7188 67.4277 18.5291 66.642 18.5291C65.8439 18.5291 65.1386 18.7188 64.5385 19.0981C63.9384 19.4774 63.4744 20.0148 63.1527 20.7039C62.831 21.3931 62.6701 22.196 62.6701 23.1127C62.6701 24.0484 62.831 24.8703 63.1527 25.591C63.4744 26.3117 63.9384 26.8681 64.5323 27.2664C65.1324 27.6647 65.8253 27.8606 66.6172 27.8606C67.4586 27.8606 68.1763 27.6647 68.7702 27.26Z" fill="white"/>
<path d="M78.0516 18.0921H81.7451C81.9863 18.0921 82.1967 18.2692 82.24 18.5094L83.2546 24.0539C83.4155 24.9454 83.5887 26.077 83.7743 27.4363C83.8795 26.3805 84.0527 25.2615 84.294 24.0792L85.4014 18.5031C85.4509 18.2628 85.6551 18.0921 85.8963 18.0921H90.3074C90.5487 18.0921 90.7591 18.2692 90.8024 18.5094L91.8417 24.0792C92.0459 25.1224 92.2191 26.2414 92.3614 27.4363C92.4852 26.5196 92.6707 25.4006 92.9306 24.0792L94.0256 18.5031C94.0751 18.2628 94.2793 18.0921 94.5206 18.0921H97.7871C98.1088 18.0921 98.3501 18.4019 98.2759 18.7243L95.3124 31.5268C95.2568 31.7607 95.0588 31.9251 94.8237 31.9251H90.0909C89.8496 31.9251 89.6455 31.7544 89.596 31.5078L88.4638 25.6282C88.2967 24.8 88.1359 23.9085 87.9936 22.9412C87.9194 23.5861 87.7709 24.4839 87.542 25.6282L86.3851 31.5141C86.3356 31.7544 86.1314 31.9251 85.8901 31.9251H81.1079C80.879 31.9251 80.6748 31.7607 80.6191 31.5331L77.5567 18.7307C77.4887 18.4082 77.7299 18.0921 78.0516 18.0921Z" fill="white"/>
<path d="M100.751 21.1979C100.751 20.6226 100.738 20.0473 100.707 19.4846C100.689 19.1748 100.676 18.8967 100.658 18.6501C100.633 18.353 100.862 18.0937 101.159 18.0937H104.722C104.976 18.0937 105.186 18.2771 105.223 18.5363C105.248 18.7386 105.273 18.9725 105.304 19.2444C105.353 19.7438 105.378 20.1168 105.378 20.3508H105.428C105.898 19.4846 106.486 18.8461 107.191 18.4415C107.896 18.0368 108.75 17.8345 109.746 17.8345C111.28 17.8345 112.406 18.2961 113.111 19.2191C113.817 20.1421 114.176 21.4066 114.176 23.0187V31.4146C114.176 31.6991 113.953 31.9267 113.674 31.9267H109.962C109.684 31.9267 109.461 31.6991 109.461 31.4146V24.3906C109.461 23.5814 109.325 22.9618 109.047 22.5382C108.775 22.1146 108.311 21.8997 107.667 21.8997C106.956 21.8997 106.411 22.1463 106.04 22.6331C105.669 23.1199 105.483 23.8153 105.483 24.7131V31.4146C105.483 31.6991 105.261 31.9267 104.982 31.9267H101.27C100.992 31.9267 100.769 31.6991 100.769 31.4146V21.1979H100.751Z" fill="white"/>
<path d="M117.867 14.4657H121.82C122.099 14.4657 122.322 14.6933 122.322 14.9778V31.4154C122.322 31.6999 122.099 31.9275 121.82 31.9275H117.867C117.589 31.9275 117.366 31.6999 117.366 31.4154V14.9778C117.366 14.6933 117.595 14.4657 117.867 14.4657Z" fill="white"/>
<path d="M125.879 14.9778C125.879 14.6933 126.101 14.4657 126.38 14.4657H132.975C135.982 14.4657 138.277 15.1738 139.867 16.5836C141.451 17.9935 142.243 20.1556 142.243 23.0638C142.243 24.9415 141.871 26.541 141.123 27.875C140.374 29.2027 139.322 30.2142 137.955 30.897C136.594 31.5798 135.01 31.9275 133.204 31.9275H126.38C126.101 31.9275 125.879 31.6999 125.879 31.4154V14.9778ZM132.975 27.717C134.342 27.717 135.375 27.325 136.087 26.541C136.792 25.7571 137.151 24.6191 137.151 23.1207C137.151 21.6919 136.798 20.5919 136.099 19.8269C135.4 19.0619 134.336 18.6826 132.901 18.6826H130.84V27.717H132.975Z" fill="white"/>
</svg>
